<?xml version="1.0" encoding="UTF-8"?>
<!DOCTYPE svg PUBLIC "-//W3C//DTD SVG 1.1//EN" "http://www.w3.org/Graphics/SVG/1.1/DTD/svg11.dtd">
<svg xmlns="http://www.w3.org/2000/svg" version="1.1" width="500px" height="500px" style="shape-rendering:geometricPrecision; text-rendering:geometricPrecision; image-rendering:optimizeQuality; fill-rule:evenodd; clip-rule:evenodd" xmlns:xlink="http://www.w3.org/1999/xlink">
<g><path style="opacity:0.985" fill="#fdfdfd" d="M 331.5,58.5 C 331.5,59.1667 331.5,59.8333 331.5,60.5C 325.341,65.1608 319.674,70.3274 314.5,76C 323.107,86.2777 332.107,96.2777 341.5,106C 342.5,106.667 343.5,106.667 344.5,106C 354.074,96.5866 364.074,87.7532 374.5,79.5C 401.347,93.0901 428.347,106.423 455.5,119.5C 455.833,120.167 456.167,120.833 456.5,121.5C 395.142,247.548 333.809,373.548 272.5,499.5C 270.833,499.5 269.167,499.5 267.5,499.5C 194.53,463.682 121.53,427.848 48.5,392C 47.9415,391.275 47.6082,390.442 47.5,389.5C 108.543,263.747 169.876,138.08 231.5,12.5C 232.723,11.3861 234.056,11.2195 235.5,12C 267.369,27.7677 299.369,43.2677 331.5,58.5 Z"/></g>
<g><path style="opacity:0.471" fill="#b9293b" d="M 409.5,47.5 C 409.649,46.448 409.483,45.448 409,44.5C 400.637,34.1409 391.637,24.4743 382,15.5C 365.518,30.8358 348.684,45.8358 331.5,60.5C 331.5,59.8333 331.5,59.1667 331.5,58.5C 348.151,43.3524 364.984,28.3524 382,13.5C 392.684,23.3521 402.517,34.0187 411.5,45.5C 411.145,46.5223 410.478,47.189 409.5,47.5 Z"/></g>
<g><path style="opacity:1" fill="#ce1e2e" d="M 409.5,47.5 C 398.459,58.8759 386.792,69.5425 374.5,79.5C 364.074,87.7532 354.074,96.5866 344.5,106C 343.5,106.667 342.5,106.667 341.5,106C 332.107,96.2777 323.107,86.2777 314.5,76C 319.674,70.3274 325.341,65.1608 331.5,60.5C 348.684,45.8358 365.518,30.8358 382,15.5C 391.637,24.4743 400.637,34.1409 409,44.5C 409.483,45.448 409.649,46.448 409.5,47.5 Z"/></g>
<g><path style="opacity:1" fill="#090909" d="M 233.5,86.5 C 237.747,86.1778 241.747,87.0111 245.5,89C 258.328,97.9148 271.328,106.581 284.5,115C 291.703,121.506 290.369,125.172 280.5,126C 263.582,115.291 246.748,104.458 230,93.5C 229.333,92.5 229.333,91.5 230,90.5C 231.376,89.2949 232.542,87.9616 233.5,86.5 Z"/></g>
<g><path style="opacity:1" fill="#0b0b0b" d="M 210.5,94.5 C 216.955,95.2196 222.955,97.3863 228.5,101C 236.5,105.667 244.5,110.333 252.5,115C 255.179,116.346 257.179,118.346 258.5,121C 255.729,124.526 252.396,125.193 248.5,123C 236.822,115.826 224.822,109.159 212.5,103C 208.303,100.825 207.637,97.9914 210.5,94.5 Z"/></g>
<g><path style="opacity:1" fill="#51b76e" d="M 307.5,120.5 C 305.735,121.461 303.735,121.795 301.5,121.5C 301.5,123.5 301.5,125.5 301.5,127.5C 300.388,125.401 299.721,123.067 299.5,120.5C 302.167,120.5 304.833,120.5 307.5,120.5 Z"/></g>
<g><path style="opacity:1" fill="#20b141" d="M 377.5,153.5 C 389.15,152.335 400.817,151.168 412.5,150C 413.571,149.148 414.571,148.315 415.5,147.5C 424.367,144.28 429.367,147.28 430.5,156.5C 392.876,166.323 355.209,175.989 317.5,185.5C 312.162,166.16 306.828,146.827 301.5,127.5C 301.5,125.5 301.5,123.5 301.5,121.5C 303.735,121.795 305.735,121.461 307.5,120.5C 310.482,120.037 313.482,119.704 316.5,119.5C 322.02,132.72 327.353,146.053 332.5,159.5C 347.446,157.127 362.446,155.127 377.5,153.5 Z"/></g>
<g><path style="opacity:1" fill="#40b458" d="M 415.5,147.5 C 414.571,148.315 413.571,149.148 412.5,150C 400.817,151.168 389.15,152.335 377.5,153.5C 389.993,151.243 402.659,149.243 415.5,147.5 Z"/></g>
<g><path style="opacity:1" fill="#0a0a0a" d="M 155.5,186.5 C 162.091,186.231 168.425,187.397 174.5,190C 197.58,199.138 220.58,208.471 243.5,218C 246.576,218.911 248.909,220.744 250.5,223.5C 247.912,226.971 244.578,228.804 240.5,229C 214.722,218.445 188.722,208.445 162.5,199C 158.768,197.539 155.268,195.706 152,193.5C 151.576,190.348 152.743,188.014 155.5,186.5 Z"/></g>
<g><path style="opacity:1" fill="#080808" d="M 159.5,208.5 C 174.529,211.265 188.362,216.931 201,225.5C 201.667,226.5 201.667,227.5 201,228.5C 198.791,230.373 196.958,232.54 195.5,235C 194.271,235.781 192.938,236.281 191.5,236.5C 179.393,232.022 167.393,227.355 155.5,222.5C 154.451,217.235 155.784,212.568 159.5,208.5 Z"/></g>
<g><path style="opacity:1" fill="#22b142" d="M 364.5,233.5 C 365.978,233.238 367.311,233.571 368.5,234.5C 369.174,236.517 370.341,238.183 372,239.5C 372.507,240.996 372.007,242.163 370.5,243C 339.433,261.952 308.266,280.786 277,299.5C 276.5,299.167 276,298.833 275.5,298.5C 269.168,279.839 262.834,261.172 256.5,242.5C 260.271,238.516 264.938,236.349 270.5,236C 276.265,246.695 281.598,257.529 286.5,268.5C 287.333,268.833 288.167,269.167 289,269.5C 314.458,257.852 339.625,245.852 364.5,233.5 Z"/></g>
<g><path style="opacity:1" fill="#090909" d="M 120.5,295.5 C 126.715,296.07 132.715,297.57 138.5,300C 167.706,313.288 196.706,326.954 225.5,341C 226.554,342.388 226.72,343.888 226,345.5C 223.521,348.669 220.354,349.836 216.5,349C 186.736,335.117 156.736,321.784 126.5,309C 123.088,307.545 119.921,305.712 117,303.5C 115.78,299.707 116.947,297.04 120.5,295.5 Z"/></g>
<g><path style="opacity:1" fill="#0a0a0a" d="M 118.5,321.5 C 122.687,321.395 126.687,322.228 130.5,324C 152.526,333.179 174.193,343.179 195.5,354C 202.317,357.941 201.65,360.608 193.5,362C 192.167,362.667 190.833,362.667 189.5,362C 169.284,352.725 148.951,343.725 128.5,335C 124.423,333.213 120.59,331.046 117,328.5C 116.391,325.935 116.891,323.601 118.5,321.5 Z"/></g>
<g><path style="opacity:1" fill="#cd2230" d="M 240.5,317.5 C 241.675,317.281 242.675,317.614 243.5,318.5C 249.452,333.071 255.952,347.404 263,361.5C 263.561,362.022 264.228,362.355 265,362.5C 283.036,354.233 300.536,345.066 317.5,335C 319.319,334.217 320.652,334.717 321.5,336.5C 323.337,341.178 322.67,345.344 319.5,349C 302.833,357.667 286.167,366.333 269.5,375C 276.873,388.913 284.373,402.747 292,416.5C 292.387,420.165 290.887,422.998 287.5,425C 286.056,425.781 284.723,425.614 283.5,424.5C 275.755,409.341 267.755,394.341 259.5,379.5C 238.132,389.848 216.466,399.681 194.5,409C 192.527,409.495 190.527,409.662 188.5,409.5C 188.334,405.486 188.501,401.486 189,397.5C 189.5,397 190,396.5 190.5,396C 211.642,387.512 232.475,378.345 253,368.5C 253.667,367.5 253.667,366.5 253,365.5C 245.952,352.071 239.452,338.404 233.5,324.5C 234.854,321.146 237.187,318.813 240.5,317.5 Z"/></g>
</svg>
