<?xml version="1.0" ?><svg xmlns="http://www.w3.org/2000/svg" viewBox="0 0 32 32"><g id="_31_check-verified-03" data-name="31 check-verified-03"><path d="M15,19.58A2,2,0,0,1,13.59,19l-3.3-3.29,1.42-1.42L15,17.59l6.29-6.3,1.42,1.42L16.42,19A2,2,0,0,1,15,19.58Z"/><path d="M16,28.73a3.16,3.16,0,0,1-2.78-1.64l-.13-.23-.23.14A3.19,3.19,0,0,1,8,24.21V24H7.79A3.08,3.08,0,0,1,5,22.36a3.13,3.13,0,0,1,0-3.22l.14-.23-.23-.13a3.18,3.18,0,0,1,0-5.56l.23-.13L5,12.86A3.19,3.19,0,0,1,7.79,8h.26V7.79A3.19,3.19,0,0,1,12.86,5l.23.14.13-.23a3.18,3.18,0,0,1,5.56,0l.13.23L19.14,5A3.19,3.19,0,0,1,24,7.79v.26h.31A3.16,3.16,0,0,1,27,9.64a3.13,3.13,0,0,1,0,3.22l-.14.23.23.13a3.18,3.18,0,0,1,0,5.56l-.23.13.14.23a3.13,3.13,0,0,1,0,3.22A3.25,3.25,0,0,1,24.21,24H24v.26A3.19,3.19,0,0,1,19.14,27l-.23-.14-.13.23A3.16,3.16,0,0,1,16,28.73Zm-2.54-4.25a1.15,1.15,0,0,1,.26,0,1,1,0,0,1,.61.48L15,26.12a1.23,1.23,0,0,0,2.08,0L17.67,25a1,1,0,0,1,.61-.48,1,1,0,0,1,.77.11l1.11.66a1.18,1.18,0,0,0,1.2,0,1.19,1.19,0,0,0,.6-1.05l0-1.29a1,1,0,0,1,.29-.72.89.89,0,0,1,.72-.29l1.29,0a1.24,1.24,0,0,0,1.05-.6,1.18,1.18,0,0,0,0-1.2l-.66-1.11a1,1,0,0,1-.11-.77,1,1,0,0,1,.48-.61L26.12,17a1.19,1.19,0,0,0,0-2.08L25,14.33a1,1,0,0,1-.48-.61,1,1,0,0,1,.11-.77l.66-1.11a1.18,1.18,0,0,0,0-1.2,1.2,1.2,0,0,0-1.05-.6l-1.29,0a1,1,0,0,1-.72-.29,1,1,0,0,1-.29-.72l0-1.29a1.19,1.19,0,0,0-.6-1,1.18,1.18,0,0,0-1.2,0l-1.11.66a1,1,0,0,1-.77.11A1,1,0,0,1,17.67,7L17,5.88a1.23,1.23,0,0,0-2.08,0L14.33,7a1,1,0,0,1-.61.48A1,1,0,0,1,13,7.38l-1.11-.66a1.18,1.18,0,0,0-1.2,0,1.19,1.19,0,0,0-.6,1l0,1.29a1,1,0,0,1-.29.72,1.12,1.12,0,0,1-.72.29L7.76,10a1.19,1.19,0,0,0-1,.6,1.18,1.18,0,0,0,0,1.2L7.38,13a1,1,0,0,1,.11.77,1,1,0,0,1-.48.61L5.88,15a1.19,1.19,0,0,0,0,2.08L7,17.67a1,1,0,0,1,.48.61,1,1,0,0,1-.11.77l-.66,1.11a1.19,1.19,0,0,0,1,1.8l1.29,0a1,1,0,0,1,.72.29,1,1,0,0,1,.29.72l0,1.29a1.19,1.19,0,0,0,.6,1.05,1.18,1.18,0,0,0,1.2,0L13,24.62A1,1,0,0,1,13.46,24.48Z"/></g></svg>